<svg version="1.1" xmlns="http://www.w3.org/2000/svg" xmlns:xlink="http://www.w3.org/1999/xlink" x="0px" y="0px"
	 viewBox="0 0 525.9 525.9" style="enable-background:new 0 0 525.9 525.9;" xml:space="preserve">
<style type="text/css">
	.st0{fill:#FFFFFF;}
	.st1{fill:rgba(0,0,0,0.1);}
</style>
<g id="logo--93">
	<path class="st1" d="M124,333.8c5.7-0.3,11.1-1.5,16-3.5c5-2,9.8-4.7,14.4-7.9c3.5-2.6,6.7-5.4,9.6-8.5c-2.4-0.6-4.8-1.4-7.3-2.2
		c-8.2-2.9-16.8-7.5-25.6-13.5l-4.5-3.1l-17.1,38.6C114.3,334.2,119.2,334.3,124,333.8z M260.1,302.6c-2.4,3.2-4.6,6.7-6.4,10.4
		c-1,2.2-1.8,4.7-2.4,7.4c-0.6,2.6-0.6,5.2,0,7.7c0.6,2.3,1.8,3.9,3.6,4.7c4.4-5.8,8.3-12.3,11.5-19.4c3.5-7.8,6.2-16.4,8.1-25.7
		c-2.3,1.8-4.6,3.8-6.6,5.8C265.2,296.3,262.5,299.3,260.1,302.6z M243.7,328.9c-0.4-2.3-0.4-4.6-0.3-6.9l0,0
		c-1.8,1.7-3.7,3.5-5.6,5.3c-4,3.3-8.7,6.4-13.8,9.3c-4.2,2.3-8.7,3.5-13.2,3.5c-1.1,0-2.1-0.1-3.2-0.2c-2.8-0.3-5.3-1.3-7.5-2.8
		s-4-3.6-5.2-6.2c-1.4-2.9-2-6.1-1.8-9.5c0.2-3.2,0.6-6.3,1.2-9.3c-4.4,2.5-9.6,3.7-15.5,3.7c-2,0-4.1-0.2-6.3-0.4
		c-0.9,1-1.7,2-2.6,3c-4.9,5.1-10.3,9.7-16.1,13.5c-6.2,3.8-12.9,6.5-19.9,8c-7,1.5-14.1,2-21.3,1.5c-2.1-0.2-4.2-0.4-6.2-0.7
		l-0.4,0.8l2.6,2.2c8.8,7.5,19.9,13.3,32.9,17.3c12.8,4,26.3,6,40.1,6c19.5,0,36.8-4.7,51.4-13.9c6.4-4,12.1-8.9,17.2-14.5
		c-1-0.6-1.9-1.3-2.7-2.2C245.4,334.3,244.1,331.8,243.7,328.9z M253.8,172.6c-16.2-19.2-39.3-28.9-68.7-28.9
		c-14.9,0-28.4,3.3-40.2,9.7c-11.9,6.5-21.3,15.7-27.9,27.4c-3.4,5.9-5.9,12.2-7.6,18.9c5-1.3,10.1-2.2,15.1-2.6l0,0
		c4.7-0.3,9.3-0.4,13.9-0.2c4.6,0.2,9.2,0.7,13.7,1.5c5.8,1.3,11.2,3.5,16.3,6.4c0.5,0.3,1,0.7,1.6,1c0.9-1.8,1.9-3.5,3.3-5
		c3.7-4.2,8.7-6.2,15.2-6.2c6.3,0,11.3,2.1,15.2,6.4c4,4.4,6,10,6,17.2c0,7.4-1.9,13.1-5.8,17.4c-2.6,2.8-5.7,4.7-9.5,5.6
		c-1.8,0.4-3.7,0.7-5.9,0.7c-0.6,0-1.1,0-1.7-0.1c-5.8-0.3-10.3-2.3-13.6-6c-3.8-4.2-5.6-10-5.6-17.6c0-1.7,0.1-3.3,0.3-4.9
		c-0.3-0.2-0.5-0.4-0.7-0.6c-5.2-3.4-10.8-5.7-16.8-6.9c-6-1.2-12.2-1.7-18.4-1.6c-6.4,0.2-12.9,0.9-19.5,2.3
		c-1.5,0.3-3,0.7-4.5,1.2c-0.6,4-0.9,8.2-0.9,12.4c0,10.8,1.9,20.9,5.5,30.1c0.2-0.4,0.3-0.8,0.5-1.2c3.1-7.6,6.8-15.2,10.7-22.7
		c1.3-2.8,2.8-5.5,4.5-8.2s3.5-5.2,5.6-7.5c0.9-0.9,1.8-1.8,2.9-3c1.4-1.5,3.1-1.8,4.8-1c1.1,0.4,1.8,1.3,2,2.6
		c0.2,1.2,0,2.2-0.7,3.1l-2.6,2.4c-1.7,2-3.4,4.2-4.9,6.6c-1.5,2.3-3,4.8-4.3,7.4c-3.6,6.7-6.8,13.3-9.4,19.7
		c-1.6,3.7-3.1,7.3-4.6,11c5.7,10.1,13.5,18.2,23.1,24c10.3,6.2,21.9,9.4,34.7,9.4c1.3,0,2.6-0.1,3.9-0.1c0.2,0,0.4,0,0.6,0
		c0.4,0,0.8-0.1,1.3-0.1c1.2-0.1,2.3-0.2,3.5-0.4c0.3,0,0.7-0.1,1-0.1c0.9-0.1,1.7-0.3,2.6-0.5c0.6-0.1,1.1-0.2,1.7-0.3
		c0.3-0.1,0.6-0.1,0.9-0.2c1.1-0.3,2.3-0.6,3.4-0.9c0.2-0.1,0.4-0.1,0.7-0.2c2.7-0.8,5.3-1.8,7.9-3c2.9-1.4,5.6-2.9,8.1-4.6
		c1.3-1.4,2.6-2.7,4-3.9c2-1.8,4.3-3.5,6.6-5c2.4-1.5,5.1-2.6,7.8-3.1c3-0.5,6-0.3,9.1,0.6c3.2,1,5.4,3.2,6.5,6.4
		c0.7,2.5,0.7,4.9,0,7.1c-0.7,2.1-1.7,4.1-3,5.9c-1.3,1.9-2.9,3.6-4.7,5.1s-3.5,2.9-5.2,4c-2.9,1.9-5.9,3.4-8.9,4.7
		c-3,1.2-6.1,2.4-9.3,3.4c-1,0.3-2,0.6-3,0.9c-0.4,0.1-1.7,0.4-3.1,0.8c-1.5,0.4-3.3,0.8-4.2,1.1c-1.2,4.2-2,8.8-2,12.3
		c0.2,1.2,0.4,2.5,0.7,4c0.3,1.3,0.9,2.5,1.8,3.5c1.7,1.4,3.5,2.1,5.5,2.1c2.3,0.3,4.5,0.1,6.7-0.6c2.3-0.7,4.5-1.6,6.6-2.5
		c2.7-1.6,5.4-3.4,8-5.4c2.6-2.1,5.2-4.2,7.7-6.5c1.5-1.3,2.9-2.7,4.3-4.3l4.1-4.6l4.5-5.4l0.3-0.4c0.4-0.6,0.7-1.2,1.1-1.8
		c2.8-4.5,6.4-8.8,10.5-13c4.1-4.2,8.7-7.8,13.6-10.8c0.1-0.1,0.2-0.1,0.3-0.2c1-7.6,1.5-15.5,1.5-23.8
		C277.9,218.6,269.8,191.5,253.8,172.6L253.8,172.6z M232.9,288.2c2.2-2.2,3.5-4.4,4-6.7c0.3-2.3-0.6-3-1.5-3.3
		c-1-0.4-2.1-0.6-3.2-0.6c-0.5,0-1.1,0-1.6,0.1h-0.1c-2.6,0.3-5.1,1.3-7.4,2.9c-2.3,1.7-4.4,3.5-6.2,5.4c-4,4.3-7.4,9.5-10.3,15.3
		c4.4-1.2,8.9-2.8,13.3-4.6C225,294.8,229.4,291.9,232.9,288.2z M350.1,315.6c-0.9,1.4-1.7,2.9-2.6,4.4c-1.8,3-3.1,6.3-3.9,9.6
		c-0.1,0.8-0.2,2-0.1,3.4c0.1,1,0.5,1.6,1.4,1.8c0.7,0.3,1.2,0.2,1.9-0.2c0.9-0.5,1.7-0.9,2.4-1.2c2.5-1.5,4.9-3.4,7-5.5
		c2.2-2.1,4.3-4.4,6.4-6.6l7.5-8.3c-3.7,1.4-9.7,2.6-19.3,2.6C350.6,315.6,350.3,315.6,350.1,315.6z M412.9,288.2
		c2.2-2.2,3.5-4.4,4-6.7c0.3-2.3-0.6-3-1.5-3.3c-1.6-0.6-3.2-0.7-4.8-0.4c-2.7,0.3-5.2,1.3-7.4,2.9c-2.3,1.7-4.4,3.5-6.2,5.4
		c-4,4.4-7.4,9.5-10.3,15.3c4.4-1.2,8.9-2.8,13.3-4.6C405,294.8,409.3,291.9,412.9,288.2z M300.1,212.7
		c8.2-5.7,16.9-10.1,25.8-13.2c8.8-3.1,17.3-4.6,25.1-4.6c7.4,0,13.1,1.7,16.9,5c3.7,3.2,5.5,7.6,5.5,13.6c0,5.4-1.7,9-5.4,11.3
		c-4.2,2.7-11.5,4-21.5,4h-31.7V280h20.8l5.8-7l3.8-4.2c1-1.5,2.6-1.9,4.4-1.1c1.7,0.8,2.6,2.1,2.3,3.9c-0.2,1-0.6,1.9-1.1,2.9
		c-0.5,0.8-0.9,1.6-1.2,2.3c-0.2,0.5-0.3,0.9-0.5,1.4c-0.1,0.3-0.2,0.6-0.2,1v0.2l-0.1,0.3c0.1,0,0.3,0.1,0.5,0.1
		c1.5,0.1,3.1,0.1,4.6,0c1.3-0.1,2.6,0,3.8,0.4c9.1,0.6,13.9,2.5,16.3,4.1c3.7,2.5,5.5,6.7,5.5,12.8c0,0.3,0,0.6,0,0.9
		c0.7-1.4,1.4-2.8,2.2-4.1c3.4-5.8,7.5-11,12.4-15.3c2-1.8,4.3-3.5,6.6-5c2.4-1.5,5-2.6,7.8-3.1c3-0.5,6-0.3,9.1,0.6
		c3.2,1,5.4,3.2,6.5,6.4c0.7,2.5,0.7,4.9,0,7.1c-0.7,2.1-1.7,4.1-3,5.9c-1.3,1.9-2.9,3.6-4.7,5.1c-1.8,1.5-3.5,2.9-5.2,4
		c-2.9,1.9-5.9,3.4-8.9,4.7c-3,1.2-6.1,2.4-9.3,3.4c-1,0.3-2,0.6-3,0.9c-1,0.2-1.9,0.5-2.9,0.8c0,0-2.2,0.7-4.4,1.3
		c-1.2,4.1-1.9,8.4-1.9,12c0.2,1.1,0.4,2.5,0.7,4c0.3,1.3,0.9,2.5,1.8,3.5c1.7,1.4,3.5,2.1,5.5,2.1c2.3,0.3,4.5,0.1,6.7-0.6
		c2.3-0.7,4.5-1.6,6.6-2.5c2.7-1.6,5.4-3.4,8-5.4c2.6-2.1,5.2-4.2,7.7-6.5c1.5-1.3,2.9-2.7,4.3-4.3c0.9-1,10.6-12,17.4-19.8
		c-1.4-9.5-4.8-18-10.3-25.3l0,0c-1.7-2.2-3.5-4.3-5.5-6.2l-13.7,1.6c-0.5,0.1-1,0.2-1.4,0.3c-0.5,0.1-1.1,0.2-1.6,0.2h-0.7h-0.4
		c-0.7,0-1.6-0.2-2.6-1.2c-1.2-1.2-1.5-2.7-0.7-4.2c1-1.7,2.2-2.1,3.2-2.1l1.6-0.3c1.4-0.2,2.9-0.4,4.3-0.6c1.3-0.1,2.6-0.2,4-0.3
		c-2-1.3-4-2.4-6.2-3.5c6.5-3.8,11.9-8.7,16.1-14.7c6.2-8.8,9.3-19.4,9.3-31.4c0-12.4-3.4-23.4-10.1-32.9
		c-6.7-9.4-16.1-16.7-28.1-21.7c-12.1-4.7-25.9-7.2-41.4-7.2c-14.5,0-29,2.1-43,6.3c-14.2,4.2-25.8,9.9-34.6,17l-2.7,2.2l20.7,46.7
		L300.1,212.7z M431.2,313.9c-4.5,4.8-10.3,10.5-16.3,15.6c-3.4,2.5-7,4.9-10.9,7c-5.2,2.9-10.7,4-16.4,3.3
		c-2.8-0.3-5.3-1.3-7.5-2.8s-4-3.6-5.2-6.2c-1.4-2.9-2-6.1-1.8-9.5c0-0.2,0-0.3,0-0.5c-2,2.4-4.1,4.8-6.3,7
		c-2.5,2.6-5.2,5.2-8.1,7.5c-1.9,1.5-3.8,2.9-5.7,4.2c-2,1.4-4.3,2.3-6.8,2.6c-2.1,0.2-3.8-0.1-5.2-0.8c-1.4-0.7-2.5-1.8-3.4-3.2
		c-0.8-1.3-1.4-2.8-1.6-4.4c-0.3-1.6-0.3-3.2-0.1-4.7c0.7-4.1,2.1-8,4.2-11.7c0.5-0.8,1-1.6,1.4-2.4c-7.4-0.9-14.8-2.7-22.2-5.6
		l-4.7,5c-2.2,2.2-4.3,4.2-6.4,6.2s-4.4,3.9-6.7,5.7c-1.5,1.3-3,2.5-4.5,3.6s-3,2.2-4.5,3.3l-5.5,3.7c-0.3,0.2-0.8,0.8-1.4,2.2
		l-4.1,9.3c7.6,4.8,16.7,8.8,27.4,11.9c14.1,4.2,29.1,6.3,44.4,6.3c26.2,0,47.3-5.6,62.6-16.7c2.5-1.8,4.8-3.8,6.9-5.8
		c0.2-0.2,0.5-0.4,0.7-0.7c0.3-0.3,0.5-0.5,0.8-0.8c0.5-0.5,1-1.1,1.5-1.6c0.2-0.2,0.5-0.5,0.7-0.7c0.5-0.5,0.9-1.1,1.3-1.6
		c0.2-0.2,0.4-0.4,0.6-0.7c0,0,0-0.1,0.1-0.1c0.6-0.8,1.2-1.6,1.8-2.5c0.2-0.3,0.3-0.5,0.5-0.8c0.4-0.6,0.7-1.1,1.1-1.7
		c0,0,0,0,0-0.1c0.2-0.3,0.4-0.6,0.6-1c0.3-0.6,0.7-1.2,1-1.8c0.2-0.3,0.3-0.6,0.5-1c0.3-0.7,0.6-1.3,0.9-2
		c0.1-0.3,0.2-0.5,0.3-0.8c0.4-0.9,0.8-1.9,1.1-2.8c0.1-0.2,0.1-0.4,0.2-0.6c0.3-0.8,0.5-1.6,0.8-2.4c0.1-0.3,0.2-0.7,0.3-1
		c0.2-0.7,0.4-1.4,0.5-2c0.1-0.4,0.2-0.7,0.3-1.1c0.2-0.7,0.3-1.4,0.4-2.1c0.1-0.3,0.1-0.7,0.2-1c0.1-0.9,0.3-1.8,0.4-2.8
		c0-0.2,0-0.3,0.1-0.5c0.1-1.1,0.2-2.2,0.3-3.3c0-0.3,0-0.6,0-0.9c0-0.6,0-1.2,0-1.7C439.9,304.3,436.4,308.4,431.2,313.9z
		 M302.9,315.2c2-1.8,5.6-5.6,8.9-9c-3-1.4-6-3-9-4.8l-10,22.4C296.4,321,299.7,318.1,302.9,315.2z"/>
</g>
<g id="logo--degres">
	<path d="M187.5,291.7c-0.4,0.1-0.8,0.2-1.2,0.2c-0.5,0.1-0.9,0.2-1.4,0.2c-0.3,0.1-0.7,0.1-1,0.1c-1.2,0.2-2.3,0.3-3.5,0.4
		c-0.4,0-0.8,0.1-1.3,0.1c-0.2,0-0.4,0-0.6,0l0,0c-2.6,5.2-5.7,10.2-9.2,14.8c-1.6,2.2-3.5,4.2-5.3,6.2c-3,3.1-6.2,6-9.6,8.5
		c-4.6,3.2-9.4,5.9-14.4,7.9c-4.9,2-10.3,3.2-16,3.5c-4.8,0.5-9.7,0.4-14.5-0.1c-1.4-0.2-2.8-0.4-4.1-0.6
		c-5.8-1.1-11.6-2.5-17.3-4.3c3.1-5.1,5.8-10.6,8-16.2c2.4-6,4.8-11.9,7.1-17.7c3-7.9,6-15.7,9-23.3c1.6-4,3.2-8,4.8-12
		c1.5-3.7,3.1-7.4,4.6-11c2.6-6.3,5.8-12.9,9.4-19.7c1.3-2.6,2.8-5.1,4.3-7.4c1.6-2.3,3.2-4.6,4.9-6.6l2.6-2.4
		c0.7-0.9,0.9-1.9,0.7-3.1s-1-2.1-2-2.6c-1.7-0.8-3.4-0.5-4.8,1c-1.1,1.1-2,2.1-2.9,3c-2,2.3-3.9,4.9-5.6,7.5
		c-1.7,2.7-3.2,5.4-4.5,8.2c-4,7.4-7.6,15-10.7,22.7c-0.2,0.4-0.3,0.8-0.5,1.2c-3,7.2-5.9,14.6-8.7,22c-3,7.8-6,15.6-9,23.3
		c-3,7.6-6.3,15.3-9.9,22.8c-0.9,1.4-1.6,2.8-2.3,4.2c-0.6,1.2-1.3,2.5-2,3.7l0,0c-0.6-0.2-1-0.4-1.4-0.6l-3.1-1.3l-6-1.7
		c-1.5-0.3-3-0.7-4.6-1c-1.7-0.4-3.4-0.4-5,0c-3.4,0.5-6.2,2.3-8.4,5.3c-1.8,2.3-2.6,5-2.2,7.8c0.4,2.8,1.9,5.1,4.4,6.7
		c2.6,1.8,5.4,2.7,8.4,2.7c0.3,0,0.5,0,0.8,0c3.1-0.2,6.2-0.8,9.1-1.8c1.9-0.7,3.7-1.4,5.3-2.3c1.8-0.9,3.4-2.2,4.7-3.9l1-1l7,2.2
		c3.5,1,7.1,1.8,10.7,2.5c1.6,0.3,3.3,0.6,5,0.8c2,0.3,4.1,0.5,6.2,0.7c7.2,0.5,14.4,0,21.3-1.5c7-1.5,13.7-4.2,19.9-8
		c5.8-3.8,11.3-8.3,16.1-13.5c0.9-1,1.8-2,2.6-3c3.7-4.3,7.1-8.9,10-13.8C184.3,298.5,186,295.2,187.5,291.7L187.5,291.7z
		 M74.5,333.7c-1.7,0.8-3.7,1.5-5.8,2.1c-2,0.6-4.2,0.9-6.3,0.7c-1.1-0.1-2.2-0.5-3.5-1c-1-0.4-1.5-1.1-1.7-2.1
		c-0.1-0.7,0.1-1.3,0.5-1.9c0.6-0.7,1.2-1.3,1.9-1.7c1.1-0.5,2.1-0.7,3.2-0.7c0.2,0,0.5,0,0.7,0c2.3,0.3,4.5,0.8,6.8,1.6
		c1.8,0.6,3.6,1.2,5.5,1.8C75.6,332.9,75.1,333.2,74.5,333.7z M405.7,264h0.4h0.7c0.6,0,1.1-0.1,1.6-0.2s1-0.2,1.4-0.3l13.7-1.6
		l1.8-0.2c1.5-0.3,2.6-1.2,3.2-2.7l0.1-0.2c0.3-1.8-0.3-3.2-1.6-4c-0.9-0.6-1.8-0.8-2.7-0.7l-0.8,0.2c-1.3,0.1-2.6,0.3-3.8,0.5
		c-1.2,0.2-2.6,0.4-3.9,0.6c-0.1,0-0.3,0-0.4,0c-1.4,0.1-2.7,0.2-4,0.3c-1.4,0.1-2.9,0.3-4.3,0.6l-1.6,0.3c-0.9,0-2.2,0.4-3.2,2.1
		c-0.8,1.4-0.6,2.9,0.7,4.2C404,263.7,405,264,405.7,264z M79.8,234.8c0.8,2,2.3,3.1,4.4,3.3c2.1,0,3.5-1.3,4-3.7
		c0-1.1-0.3-2-1-2.5c-0.3-0.2-0.4-0.5-0.6-0.8c-0.4-1.1-0.5-2.2-0.2-3.3c0.3-1.3,0.7-2.5,0.9-3.5c1.6-3.3,4.1-6.4,7.4-9.3
		c3.9-3.2,8.3-5.5,13-7.1c1.5-0.5,3-0.9,4.5-1.2c6.5-1.4,13.1-2.2,19.5-2.3c6.2-0.1,12.4,0.4,18.4,1.6s11.6,3.5,16.8,6.9
		c0.3,0.2,0.5,0.4,0.7,0.6c4.8,3.4,9,7.7,12.2,12.7c3.1,4.9,5.3,10.1,6.7,15.7c0.6,0,1.1,0.1,1.7,0.1c2.1,0,4-0.2,5.9-0.7
		c-0.5-2.3-1-4.5-1.7-6.7c-2.1-6.9-5.7-13.2-10.6-18.9c-3.5-3.9-7.5-7.2-11.9-9.9c-0.5-0.3-1-0.7-1.6-1c-5-2.9-10.5-5.1-16.3-6.4
		c-4.5-0.8-9.1-1.3-13.7-1.5c-4.6-0.2-9.3-0.1-13.9,0.2l0,0c-5,0.4-10.1,1.3-15.1,2.6c-1.3,0.3-2.6,0.7-3.9,1.1
		c-6.3,2-12,5.2-16.9,9.6c-3.6,3.4-6.2,7-7.9,10.7c-1.4,2.9-2,5.9-1.8,8.8C78.8,231.4,79.1,233,79.8,234.8z M464.7,269.1
		c-1.7-1.3-3.6-1.1-5.1,0.6l-3,3.4c-3.8,4.3-7.6,8.6-11.2,13c-1.1,1.3-3.4,3.9-6.1,7.1c-6.8,7.8-16.5,18.8-17.4,19.8
		c-1.4,1.5-2.8,3-4.3,4.3c-2.4,2.2-5,4.4-7.7,6.5c-2.6,2-5.3,3.9-8,5.4c-2.1,1-4.4,1.8-6.6,2.5c-2.2,0.7-4.4,0.9-6.7,0.6
		c-1.9,0-3.8-0.7-5.5-2.1c-0.9-1-1.5-2.2-1.8-3.5c-0.3-1.4-0.6-2.8-0.7-4c0-3.6,0.7-7.9,1.9-12c2.1-0.7,4.3-1.3,4.4-1.3
		c1-0.3,1.9-0.6,2.9-0.8c1-0.3,2-0.5,3-0.9c3.2-1,6.3-2.1,9.3-3.4c3-1.2,6-2.8,8.9-4.7c1.7-1.1,3.4-2.5,5.2-4
		c1.8-1.5,3.4-3.3,4.7-5.1c1.3-1.9,2.3-3.9,3-5.9c0.7-2.2,0.7-4.5,0-7.1c-1.1-3.3-3.3-5.4-6.5-6.4c-3-0.9-6.1-1.2-9.1-0.6
		c-2.8,0.5-5.4,1.6-7.8,3.1c-2.3,1.5-4.6,3.2-6.6,5c-4.9,4.3-9,9.5-12.4,15.3c-0.8,1.4-1.5,2.7-2.2,4.1c-1.4,2.8-2.6,5.7-3.5,8.6
		L370,313l-7.5,8.3c-2.1,2.3-4.3,4.5-6.4,6.6s-4.5,3.9-7,5.5c-0.7,0.3-1.5,0.7-2.4,1.2c-0.7,0.4-1.2,0.4-1.9,0.2
		c-0.9-0.2-1.3-0.8-1.4-1.8c-0.1-1.4,0-2.6,0.1-3.4c0.8-3.3,2.1-6.6,3.9-9.6c0.9-1.5,1.7-2.9,2.6-4.4c1-1.6,1.9-3.2,2.9-4.7
		l3.5-5.4c1.2-1.8,2.3-3.8,3.2-5.7c2-3.4,3.4-6.8,4.1-10.2c0.4-1.8,0.2-3.6-0.6-5.3c-0.8-1.7-2.2-3-4.2-3.7
		c-0.4-0.2-0.9-0.3-1.3-0.5c-1.2-0.4-2.5-0.5-3.8-0.4c-1.5,0.2-3.1,0.2-4.6,0c-0.2,0-0.4-0.1-0.5-0.1l0.1-0.4V279
		c0-0.4,0.1-0.7,0.2-1c0.2-0.4,0.3-0.9,0.5-1.4c0.3-0.8,0.7-1.5,1.2-2.3c0.6-0.9,0.9-1.9,1.1-2.9c0.2-1.8-0.6-3.1-2.3-3.9
		c-1.8-0.8-3.3-0.3-4.4,1.1l-3.8,4.2l-5.8,7l-2.2,2.6c-2.3,2.8-4.7,5.5-7.1,8.1s-4.8,5.3-7.3,7.9c-0.1,0.1-0.6,0.7-1.5,1.5
		c-1.4,1.5-3.5,3.7-5.8,6.1c-3.3,3.5-7,7.2-8.9,9c-3.2,2.9-6.5,5.8-10,8.5l10-22.4l9.6-21.7c0.3-0.8,0.8-1.7,1.3-2.7
		c0.7-1.3,0.9-2.5,0.7-3.5c-0.2-1.5-1.1-2.6-2.6-3c-1.1-0.3-2.1-0.6-3-0.8c-5.8-1-11.5-0.8-17.1,0.8c-5.4,1.5-10.6,3.7-15.5,6.6
		c-0.1,0.1-0.2,0.1-0.3,0.2c-4.9,3-9.5,6.6-13.6,10.8c-4.1,4.1-7.6,8.5-10.5,13c-0.4,0.6-0.7,1.2-1.1,1.8l-0.3,0.4l-4.5,5.4
		l-4.1,4.6c-1.4,1.5-2.8,3-4.3,4.3c-2.4,2.2-5,4.4-7.7,6.5c-2.6,2-5.3,3.9-8,5.4c-2.1,1-4.4,1.8-6.6,2.5c-2.2,0.7-4.4,0.9-6.7,0.6
		c-1.9,0-3.8-0.7-5.5-2.1c-0.9-1-1.5-2.2-1.8-3.5c-0.3-1.4-0.6-2.8-0.7-4c0-3.6,0.7-8.1,2-12.3c0.9-0.2,2.6-0.7,4.2-1.1
		c1.4-0.4,2.7-0.7,3.1-0.8c1-0.3,2-0.5,3-0.9c3.2-1,6.3-2.1,9.3-3.4c3-1.2,6-2.8,8.9-4.7c1.7-1.1,3.4-2.5,5.2-4s3.4-3.3,4.7-5.1
		c1.3-1.9,2.3-3.9,3-5.9c0.7-2.2,0.7-4.5,0-7.1c-1.1-3.3-3.3-5.4-6.5-6.4c-3.1-0.9-6.1-1.2-9.1-0.6c-2.8,0.5-5.4,1.6-7.8,3.1
		c-2.3,1.5-4.6,3.2-6.6,5c-1.4,1.2-2.7,2.5-4,3.9c-3.2,3.4-6,7.2-8.4,11.4c-3.4,5.8-5.8,12-7.3,18.3v0.1c-0.7,3-1.1,6.1-1.2,9.3
		c-0.2,3.4,0.4,6.6,1.8,9.5c1.2,2.6,3,4.7,5.2,6.2s4.7,2.4,7.5,2.8c1.1,0.1,2.1,0.2,3.2,0.2c4.5,0,9-1.2,13.2-3.5
		c5.1-2.8,9.7-5.9,13.8-9.3c2-1.8,3.9-3.6,5.6-5.3l0,0c-0.2,2.3-0.1,4.6,0.3,6.9c0.4,2.9,1.7,5.4,3.6,7.6c0.8,0.9,1.7,1.6,2.7,2.2
		c1.9,1.2,4.1,1.9,6.6,2c3.5,0.2,6.9-0.3,10-1.3c3.8-1.3,7.2-3.4,10.2-6c2.1-1.8,4.1-3.8,6-5.7l-1.4,3.4l-0.5,1
		c-0.1,0.2-0.3,0.5-0.4,0.6l-7.5,4.9c-3.3,2.1-6.6,4.3-10,6.5c-3.4,2.3-6.5,4.8-9.3,7.6c-4.3,4.1-8.4,8.7-12.1,13.7
		c-3.7,5-6.5,10.5-8.4,16.3c-0.8,2.3-1.5,4.7-1.9,7.1s-0.5,4.8-0.1,7.2c0.4,3.5,1.5,6.6,3.6,9.3c1.8,2.4,4.3,3.6,7.6,3.6
		c0.6,0,1.3,0,1.9-0.1c2.1-0.4,4.1-1.2,5.8-2.4c1.6-1.2,3.1-2.6,4.6-4.1c1.8-2.3,3.5-4.7,4.9-7.1c1.4-2.4,2.8-4.9,4.1-7.3
		c3-5.6,5.8-11.4,8.3-17.1s5.1-11.5,7.7-17.3l2.1-4.8l4.1-9.3c0.5-1.4,1.1-2,1.4-2.2l5.5-3.7c1.5-1.1,3-2.2,4.5-3.3
		s3.1-2.3,4.5-3.6c2.3-1.8,4.6-3.7,6.7-5.7s4.2-4,6.4-6.2l4.7-5l6.6-7.1c2.8-3.3,5.7-6.6,8.6-9.7c2.6-2.8,5.1-5.8,7.6-8.8
		c0.8,1.3,1.8,2.1,3,2.5c1.5,0.5,3.1,0.9,4.9,1c0.7,0,2,0,4-0.1c0.2,0,0.3,0,0.5,0c1.5,0,1.7,0.3,1.7,0.2c0.1,1.3-0.2,2.7-0.9,4.1
		l-2.2,4.4c-1.2,2-2.3,3.9-3.4,5.7c-1.1,1.8-2.2,3.6-3.3,5.4c-1.7,2.5-3.3,5.2-4.9,8c-0.5,0.8-1,1.6-1.4,2.4
		c-2.1,3.7-3.5,7.6-4.2,11.7c-0.2,1.6-0.1,3.2,0.1,4.7c0.3,1.6,0.8,3.1,1.6,4.4c0.8,1.4,2,2.5,3.4,3.2c1.4,0.7,3.1,1,5.2,0.8
		c2.5-0.4,4.8-1.2,6.8-2.6c1.9-1.3,3.8-2.7,5.7-4.2c2.9-2.3,5.6-4.8,8.1-7.5c2.1-2.3,4.2-4.6,6.3-7c0,0.2,0,0.3,0,0.5
		c-0.2,3.4,0.4,6.6,1.8,9.5c1.2,2.6,3,4.7,5.2,6.2s4.7,2.4,7.5,2.8c5.7,0.7,11.2-0.4,16.4-3.3c3.9-2.1,7.5-4.5,10.9-7
		c6.1-5.1,11.8-10.9,16.3-15.6c5.2-5.5,8.6-9.6,8.7-9.8c0,0,0,0,0-0.1c5-5.6,10.5-11.9,13.8-15.7c-0.1,3.1-0.1,6.3,0.2,9.3
		c0.3,4,0.5,8,0.5,11.9c0,2.9-0.1,5.9-0.4,8.8c-0.2,2.9-1.1,10.3-4.9,13.9c-1.7,1.5-4.9,2.7-7.1,2.8c-4.2,0.1-7.4-0.8-10-2
		c0,0,0,0,0-0.1c0,0,0,0,0,0.1l0,0c-0.4,0.6-0.7,1.2-1.1,1.7c-0.2,0.3-0.3,0.5-0.5,0.8c-0.6,0.8-1.2,1.7-1.8,2.5c0,0,0,0.1-0.1,0.1
		c-0.2,0.2-0.4,0.4-0.6,0.7c-0.4,0.5-0.9,1.1-1.3,1.6c0.5-0.5,0.9-1.1,1.4-1.6c2.4,1.1,4.9,2,7.4,2.6c2.9,0.7,5.4,1,8.5,1
		c11.2-0.7,14.7-11.3,14.7-11.3c1.2-2.6,2-5.3,2.3-8.2c0.5-3.7,0.8-7.4,0.8-10.8c0.2-4.1,0.1-8.3-0.3-12.5c-0.3-4-0.4-8.1-0.3-12.2
		c0.2-1.8,0.3-3.5,0.5-5.2c0.2-1.5,0.5-3,1.2-4.4c0.3-0.7,0.7-1.2,1.2-1.7c0.8-0.7,1.4-1.5,1.7-2.4
		C466.9,272.1,466.4,270.4,464.7,269.1z M396.9,286.1c1.8-1.9,3.9-3.7,6.2-5.4c2.2-1.6,4.7-2.6,7.4-2.9c1.6-0.3,3.3-0.1,4.8,0.4
		c0.9,0.3,1.8,1,1.5,3.3c-0.5,2.3-1.8,4.5-4,6.7c-3.5,3.7-7.9,6.6-13,8.6c-4.4,1.8-8.9,3.4-13.3,4.6
		C389.5,295.6,393,290.5,396.9,286.1z M216.9,286.1c1.8-1.9,3.9-3.7,6.2-5.4c2.2-1.6,4.7-2.6,7.4-2.9h0.1c0.5-0.1,1.1-0.1,1.6-0.1
		c1.1,0,2.2,0.2,3.2,0.6c0.9,0.3,1.8,1,1.5,3.3c-0.5,2.3-1.8,4.5-4,6.7c-3.5,3.7-7.9,6.6-13,8.6c-4.4,1.8-8.9,3.4-13.3,4.6
		C209.5,295.6,213,290.5,216.9,286.1z M270.5,354.8L270.5,354.8c-1.8,4.1-3.6,8.1-5.4,12.1c-1.7,3.9-3.6,7.9-5.6,11.8
		c-1.3,2.9-2.8,5.9-4.3,8.8c-1.6,2.9-3.3,5.7-5.3,8.3c-0.4,0.7-1.1,1.5-1.8,2.3c-0.8,0.8-1.6,1.5-2.5,2.1c-0.8,0.6-1.7,1-2.5,1.2
		c-0.7,0.2-1.4,0-2.2-0.5c-1.1-0.7-1.8-1.7-2-3.2c-0.3-1.6-0.4-3-0.2-4.4c0-1,0-1.9,0.1-2.7c0.1-0.9,0.2-1.7,0.4-2.5
		c0.8-3.8,2.2-7.6,4.1-11.2c2-3.6,4.2-7.1,6.6-10.3c1.8-2.1,3.7-4.2,5.6-6.1c1.9-1.9,3.9-3.8,6-5.6c2.6-2.3,5.3-4.3,8-6.1
		c1.8-1.2,3.6-2.4,5.5-3.6L270.5,354.8z M291.8,303.4c-1.8,2.8-3.6,5.5-5.3,8c-1.7,2.5-3.6,5-5.8,7.4l0,0c-1.8,2.1-3.7,4.2-5.7,6.1
		c-1.9,1.9-4.1,3.6-6.3,5c-2.1,1.3-4,2.1-5.7,2.6c-1.3,0.3-2.7,0.6-4.2,0.7c-1.4,0.1-2.7,0-3.8-0.4l0,0c-1.9-0.9-3-2.4-3.6-4.7
		c-0.6-2.5-0.6-5,0-7.7c0.6-2.7,1.5-5.2,2.4-7.4c1.8-3.7,3.9-7.2,6.4-10.4c2.5-3.2,5.1-6.3,7.9-9c2.1-2,4.3-4,6.6-5.8
		c0.4-0.3,0.8-0.7,1.2-1c2.8-2.1,5.7-4,8.8-5.6c3.4-1.8,7-3.1,10.8-3.9c2.1-0.4,4.2-0.7,6.3-0.7c1.2,0,2.4,0.1,3.6,0.2
		c-2,4.3-4,8.6-6.2,12.8C296.9,294.3,294.4,298.9,291.8,303.4z M440,304.1C440,304.1,440,304.2,440,304.1c0,0.6,0,1.2-0.1,1.8
		C440,305.3,440,304.7,440,304.1z M423.1,344.3c0.2-0.2,0.4-0.4,0.7-0.7C423.5,343.9,423.3,344.1,423.1,344.3L423.1,344.3z"/>
</g>

</svg>
